<?xml version="1.0" standalone="no"?>
<!DOCTYPE svg PUBLIC "-//W3C//DTD SVG 20010904//EN"
 "http://www.w3.org/TR/2001/REC-SVG-20010904/DTD/svg10.dtd">
<svg version="1.0" xmlns="http://www.w3.org/2000/svg"
 width="700.000000pt" height="700.000000pt" viewBox="0 0 700.000000 700.000000"
 preserveAspectRatio="xMidYMid meet">
<metadata>
Created by potrace 1.14, written by Peter Selinger 2001-2017
</metadata>
<g transform="translate(0.000000,700.000000) scale(0.100000,-0.100000)"
fill="#000000" stroke="none">
<path d="M1358 6859 c-602 -64 -1091 -521 -1204 -1124 -18 -96 -19 -191 -19
-2220 0 -2031 1 -2124 19 -2220 114 -607 592 -1056 1200 -1126 61 -7 782 -9
2196 -7 2097 4 2105 4 2195 25 557 129 960 539 1072 1090 17 83 18 208 18
2238 0 2402 6 2193 -70 2422 -154 463 -533 795 -1035 906 -95 21 -100 21
-2195 23 -1155 1 -2135 -2 -2177 -7z m2572 -1044 c786 -119 1289 -600 1336
-1280 l7 -95 -540 0 -539 0 -12 83 c-33 250 -171 408 -413 474 -91 25 -357 25
-449 0 -169 -46 -302 -144 -362 -265 -30 -61 -33 -74 -33 -162 0 -84 3 -102
28 -153 85 -173 297 -295 819 -473 602 -204 902 -365 1144 -612 223 -226 336
-489 351 -813 24 -510 -211 -905 -670 -1129 -275 -134 -522 -187 -918 -197
-446 -11 -790 54 -1129 214 -518 244 -802 653 -846 1216 l-6 87 544 0 545 0 7
-86 c32 -390 224 -572 649 -615 346 -35 606 60 703 256 28 57 29 66 29 190 0
112 -4 138 -23 188 -50 124 -148 211 -347 307 -119 58 -200 89 -555 216 -652
232 -1010 460 -1223 777 -136 204 -196 426 -184 687 25 536 406 940 1062 1124
112 31 289 63 420 75 138 13 478 5 605 -14z"/>
</g>
</svg>
